<?xml version="1.0" encoding="utf-8"?>
<!-- Generator: Adobe Illustrator 24.0.2, SVG Export Plug-In . SVG Version: 6.00 Build 0)  -->
<svg version="1.1" id="图层_1" xmlns="http://www.w3.org/2000/svg" xmlns:xlink="http://www.w3.org/1999/xlink" x="0px" y="0px"
	 viewBox="0 0 48 48" style="enable-background:new 0 0 48 48;" xml:space="preserve">
<style type="text/css">
	.st0{fill:none;}
</style>
<path class="st0" d="M0,0h48v48H0V0z"/>
<g>
	<path d="M45.9,13.9c0-2.2-1.8-4-4-4h-7.2L40,4.6l-3-2.7l-8,8H18.8l-8-8L7.8,4.6l5.3,5.3H5.9c-2.2,0-4,1.8-4,4L2,40c0,2.2,1.8,4,4,4
		h36c2.2,0,4-1.8,4-4L45.9,13.9z M6,40L5.9,13.9h36L42,40H6z"/>
	<path d="M15,21.8L15,21.8c1.4,0,2.6,1.2,2.6,2.6v1.8c0,1.4-1.2,2.6-2.6,2.6h0c-1.4,0-2.6-1.2-2.6-2.6v-1.8
		C12.4,23,13.6,21.8,15,21.8z"/>
	<path d="M33,21.8L33,21.8c1.4,0,2.6,1.2,2.6,2.6v1.8c0,1.4-1.2,2.6-2.6,2.6h0c-1.4,0-2.6-1.2-2.6-2.6v-1.8
		C30.3,23,31.5,21.8,33,21.8z"/>
</g>
</svg>
